<?xml version="1.0" standalone="no"?>
<!DOCTYPE svg PUBLIC "-//W3C//DTD SVG 20010904//EN"
 "http://www.w3.org/TR/2001/REC-SVG-20010904/DTD/svg10.dtd">
<svg version="1.0" xmlns="http://www.w3.org/2000/svg"
 width="206.000000pt" height="220.000000pt" viewBox="0 0 206.000000 220.000000"
 preserveAspectRatio="xMidYMid meet">

<g transform="translate(0.000000,220.000000) scale(0.100000,-0.100000)"
fill="#000000" stroke="none">
<path d="M858 2025 c-214 -34 -405 -133 -562 -291 -338 -341 -389 -877 -123
-1276 30 -46 67 -94 81 -107 l26 -24 0 34 c0 19 -11 131 -25 249 -14 118 -25
234 -25 257 0 56 309 805 348 844 15 15 110 91 212 169 102 78 187 146 188
151 4 11 -11 10 -120 -6z m-434 -435 c25 -10 46 -23 46 -28 0 -9 -175 -436
-185 -453 -3 -4 -27 1 -53 12 -26 12 -57 25 -69 30 -24 9 -26 3 137 392 36 88
33 86 124 47z"/>
<path d="M1224 1951 l36 -71 110 0 111 0 -15 28 c-8 16 -21 33 -28 40 -18 15
-154 60 -207 68 l-43 7 36 -72z"/>
<path d="M1120 1964 c0 -12 3 -36 6 -53 5 -24 12 -31 30 -31 l24 0 -19 38
c-34 62 -41 70 -41 46z"/>
<path d="M830 1717 l-144 -112 -153 -367 -152 -367 19 -173 c11 -95 21 -180
22 -190 2 -12 44 17 152 103 l149 120 153 367 152 367 -24 179 c-13 98 -25
180 -26 182 -2 1 -68 -48 -148 -109z m-98 -254 c35 -15 64 -27 65 -28 3 -2
-185 -456 -191 -462 -2 -2 -34 8 -71 23 -53 21 -66 30 -62 45 11 40 182 449
189 449 4 0 35 -12 70 -27z"/>
<path d="M1146 1753 c3 -27 9 -73 12 -103 l7 -55 63 -3 c34 -2 62 -1 62 1 0 4
-55 166 -65 190 -5 12 -18 17 -46 17 l-40 0 7 -47z"/>
<path d="M1305 1781 c3 -11 18 -57 34 -103 l28 -83 116 -3 c90 -2 117 0 117
10 0 7 -16 55 -36 106 l-36 92 -114 0 c-109 0 -115 -1 -109 -19z"/>
<path d="M1614 1784 c4 -9 21 -56 39 -105 l32 -89 88 0 c68 0 87 3 81 13 -20
34 -119 148 -149 171 -39 30 -101 37 -91 10z"/>
<path d="M1180 1470 c0 -22 -11 -68 -25 -102 -14 -34 -25 -63 -25 -65 0 -2 50
-3 111 -3 l111 0 -6 28 c-3 15 -8 45 -12 67 -3 22 -10 57 -15 78 l-10 37 -64
0 -65 0 0 -40z"/>
<path d="M1393 1483 c4 -16 12 -63 19 -105 l12 -78 123 0 c68 0 123 2 123 4 0
9 -31 172 -36 189 -5 15 -20 17 -126 17 l-120 0 5 -27z"/>
<path d="M1713 1483 c4 -16 12 -63 19 -105 l12 -78 128 0 c70 0 128 2 128 4 0
9 -32 94 -56 147 l-27 59 -105 0 -104 0 5 -27z"/>
<path d="M1096 1221 c-16 -26 -76 -178 -76 -193 0 -17 14 -18 170 -18 l170 0
0 110 0 110 -129 0 c-72 0 -132 -4 -135 -9z"/>
<path d="M1434 1184 c3 -26 6 -75 6 -110 l0 -64 126 0 127 0 -6 83 c-4 45 -7
94 -7 110 l0 27 -126 0 -127 0 7 -46z"/>
<path d="M1754 1208 c3 -13 6 -62 6 -110 l0 -88 141 0 142 0 -7 73 c-4 39 -9
89 -13 110 l-6 37 -134 0 -135 0 6 -22z"/>
<path d="M1020 830 l0 -111 157 3 157 3 7 33 c4 19 10 67 14 108 l7 74 -171 0
-171 0 0 -110z"/>
<path d="M1427 853 c-4 -49 -10 -98 -13 -111 l-6 -23 123 3 124 3 12 75 c6 41
12 90 12 108 l1 32 -124 0 -123 0 -6 -87z"/>
<path d="M1756 928 c-3 -7 -7 -44 -10 -81 -4 -37 -9 -81 -13 -98 l-6 -30 134
3 133 3 13 44 c7 24 16 72 21 107 l9 64 -139 0 c-102 0 -140 -3 -142 -12z"/>
<path d="M916 795 c-14 -36 -26 -67 -26 -70 0 -3 14 -5 30 -5 l30 0 0 70 c0
39 -2 70 -4 70 -2 0 -16 -29 -30 -65z"/>
<path d="M835 626 c-11 -11 -40 -37 -64 -56 -43 -35 -43 -36 -36 -83 l7 -47
104 0 104 0 0 105 0 105 -47 -1 c-35 -1 -53 -7 -68 -23z"/>
<path d="M1020 545 l0 -105 125 0 124 0 15 53 c26 94 36 132 36 145 0 9 -37
12 -150 12 l-150 0 0 -105z"/>
<path d="M1390 608 c-6 -24 -17 -68 -25 -99 -8 -30 -15 -58 -15 -62 0 -4 52
-7 115 -7 l114 0 26 88 c15 48 29 95 31 105 5 15 -5 17 -115 17 l-120 0 -11
-42z"/>
<path d="M1693 568 c-12 -46 -25 -93 -29 -105 -6 -23 -5 -23 94 -23 l101 0 35
58 c19 32 44 79 55 105 l20 47 -127 0 -127 0 -22 -82z"/>
<path d="M630 460 l-25 -20 33 0 c32 0 38 6 24 27 -5 8 -14 6 -32 -7z"/>
<path d="M456 318 c-24 -24 -48 -56 -52 -72 -8 -34 2 -45 109 -109 66 -39 272
-117 310 -117 14 0 10 15 -29 93 -26 50 -59 126 -74 167 l-28 75 -95 3 -96 3
-45 -43z"/>
<path d="M770 355 c0 -26 107 -258 141 -306 10 -14 16 -29 13 -31 -3 -3 2 -8
11 -11 13 -6 15 15 15 173 l0 180 -90 0 c-49 0 -90 -2 -90 -5z"/>
<path d="M1020 179 l0 -180 33 3 c37 4 57 35 131 208 70 167 76 150 -53 150
l-111 0 0 -181z"/>
<path d="M1285 263 c-20 -54 -55 -132 -76 -174 l-38 -76 46 8 c80 15 182 49
199 67 15 14 107 200 127 255 6 16 -3 17 -107 17 l-113 0 -38 -97z"/>
<path d="M1614 323 c-9 -21 -29 -67 -45 -102 -16 -35 -27 -66 -25 -68 11 -12
185 127 226 180 l21 27 -81 0 -81 0 -15 -37z"/>
</g>
</svg>
